<svg width="167" height="167" viewBox="0 0 167 167" fill="none" xmlns="http://www.w3.org/2000/svg">
<path d="M73.5 151.5L123 7.5L151.5 4.5L155.5 13L102.5 162H73.5V151.5Z" fill="#3CA97B"/>
<path d="M10.5 19L57.5 142L61.5 156L76.5 138L81.5 114L41.5 5H17L10.5 19Z" fill="#3CA97B"/>
<path d="M139 58L148.778 38.2342C149.909 35.9473 152.24 34.5 154.791 34.5C158.496 34.5 161.5 37.5037 161.5 41.2089V148C161.5 156.284 154.784 163 146.5 163H116.802C114.329 163 111.918 162.227 109.906 160.79C105.537 157.67 103.809 152.004 105.691 146.976L139 58Z" fill="#3CA97B"/>
<path d="M41 0H47.2781H119.721H124L87.8663 105.549C86.9626 108.188 83.7022 109.115 81.545 107.346L78.6165 104.943C78.0513 104.48 77.624 103.87 77.381 103.181L41 0Z" fill="#063651"/>
<path d="M122.449 0C120.815 0 119.359 1.03237 118.825 2.57685V2.57685C113.542 17.7113 86.6502 94.8871 83.6423 103.807C83.5918 103.957 83.3954 103.904 83.3449 103.754V103.754C81.373 97.8371 56.6883 26.9974 49.333 5.89499C48.0957 2.34506 44.7594 0 41 0V0H27C12.0883 0 0 12.0883 0 27V140C0 154.912 12.0883 167 27 167H140C154.912 167 167 154.912 167 140V27C167 12.0883 154.912 0 140 0H124H122.449ZM19.5832 24.7786C16.982 17.5067 22.3726 9.85341 30.0958 9.85341V9.85341C34.7956 9.85341 38.9923 12.7966 40.5931 17.2155L77.7503 119.784C77.7518 119.788 77.7525 119.792 77.7525 119.797V119.797C77.7525 119.801 77.7538 119.8 77.7523 119.804C77.7437 119.827 77.4635 120.59 76.989 121.877C73.0106 132.671 58.1279 132.536 54.2534 121.704L19.5832 24.7786ZM91.1409 159.984C83.3578 159.984 77.9307 152.264 80.5652 144.94L89.6076 119.803L126.451 17.2283C128.04 12.8041 132.235 9.85341 136.936 9.85341V9.85341C144.643 9.85341 150.022 17.49 147.427 24.7464L101.724 152.53C100.125 157 95.8888 159.984 91.1409 159.984V159.984ZM159.549 138.386C159.549 149.898 150.217 159.23 138.705 159.23V159.23C124.231 159.23 114.163 144.84 119.123 131.243V131.243C127.112 109.343 159.549 115.074 159.549 138.386V138.386Z" fill="#063651"/>
</svg>
