<svg viewBox="0 0 167 167" fill="#FFFFFF" xmlns="http://www.w3.org/2000/svg">
<path d="M119.721 0C119.721 0 119.399 0.918113 118.825 2.57685C113.444 17.9941 85.6376 97.7931 83.499 104.235C83.4432 104.056 83.4008 103.92 83.3449 103.754C81.0253 96.7938 47.2781 0 47.2781 0H0V167H167V0H119.721ZM14.2444 9.85341H37.926L77.7525 119.79V119.803C77.7525 119.803 68.7083 144.417 65.3678 152.775L14.2444 9.85341ZM75.1536 159.984L89.6076 119.803L129.1 9.85341H152.753L99.0575 159.984H75.1536ZM159.549 159.23H108.914L159.549 20.4191V159.23Z" fill="#FFFFFF"/>
</svg>
